<?xml version="1.0" standalone="no"?>
<!DOCTYPE svg PUBLIC "-//W3C//DTD SVG 20010904//EN"
 "http://www.w3.org/TR/2001/REC-SVG-20010904/DTD/svg10.dtd">
<svg version="1.0" xmlns="http://www.w3.org/2000/svg"
 width="1000.000000pt" height="1000.000000pt" viewBox="0 0 1000.000000 1000.000000"
 preserveAspectRatio="xMidYMid meet">

<g transform="translate(0.000000,1000.000000) scale(0.100000,-0.100000)"
fill="#000000" stroke="none">
<path d="M0 5000 l0 -5000 5000 0 5000 0 0 5000 0 5000 -5000 0 -5000 0 0
-5000z m5438 3036 c15 -13 64 -56 110 -96 202 -175 398 -447 516 -716 200
-454 237 -965 111 -1529 -33 -150 -41 -167 -86 -182 -101 -33 -433 -74 -754
-93 -219 -13 -848 -13 -1035 0 -157 11 -353 35 -412 51 -36 9 -38 12 -62 92
-246 817 -125 1578 345 2167 41 52 125 142 185 199 l110 104 385 3 c211 1 409
7 439 12 95 16 120 14 148 -12z m-483 -3676 l-1070 -1070 -3 47 -3 47 1012
1012 1012 1012 51 9 c28 6 55 11 61 12 5 0 -472 -481 -1060 -1069z m1185 1027
l0 -42 -1125 -1125 -1125 -1125 0 50 0 50 1117 1117 c615 615 1121 1118 1125
1118 5 0 8 -19 8 -43z m-2180 3 c22 0 18 -7 -40 -65 l-65 -66 -5 43 c-5 36 -2
47 20 71 17 19 31 26 45 23 11 -3 31 -6 45 -6z m875 -950 l-950 -950 -3 47 -3
47 897 897 c632 632 906 899 924 902 97 15 139 61 -865 -943z m-825 775 l-155
-155 -3 46 -3 47 108 109 108 108 50 0 50 0 -155 -155z m715 -685 l-840 -840
-5 42 -6 43 790 792 c556 557 798 793 816 796 97 15 133 55 -755 -833z m-412
821 c26 -6 17 -16 -218 -251 l-245 -245 0 50 0 50 202 202 c112 112 210 202
218 202 8 -1 27 -4 43 -8z m302 -731 l-740 -740 -3 47 -3 47 687 687 688 688
51 4 c27 2 52 4 55 5 3 1 -328 -331 -735 -738z m-107 722 c20 -6 -16 -45 -313
-342 l-335 -335 0 50 0 50 292 292 c295 295 301 300 356 285z m2 -627 l-635
-635 -3 47 -3 47 582 582 c619 619 580 584 674 592 12 1 -223 -241 -615 -633z
m-210 190 l-435 -435 -3 47 -3 47 388 388 388 388 50 0 50 0 -435 -435z m106
-94 c-292 -292 -533 -528 -538 -525 -4 3 -8 22 -8 42 0 35 20 57 487 524 l488
488 50 0 50 0 -529 -529z m618 -782 l-1129 -1129 -3 47 -3 47 1123 1123 1123
1123 9 -41 9 -41 -1129 -1129z m5 -195 c-618 -618 -1126 -1121 -1131 -1118 -4
3 -8 22 -8 42 0 36 38 75 1128 1165 l1127 1127 3 -47 3 -47 -1122 -1122z m-1
-201 l-1123 -1123 -3 47 -3 47 1123 1123 1123 1123 3 -47 3 -47 -1123 -1123z
m35 -165 c-1144 -1144 -1108 -1110 -1151 -1075 -10 8 243 267 1115 1139 l1128
1128 3 -47 3 -47 -1098 -1098z m90 -110 c-962 -962 -1010 -1008 -1044 -1008
-20 0 -39 3 -43 7 -4 4 465 479 1041 1055 l1048 1048 3 -47 3 -47 -1008 -1008z
m90 -110 c-876 -876 -920 -918 -954 -918 -20 0 -39 3 -43 7 -4 4 424 438 951
965 l958 958 3 -47 3 -47 -918 -918z m100 -100 l-828 -828 -50 0 -50 0 875
875 875 875 3 -47 3 -47 -828 -828z m95 -105 l-733 -733 -50 0 -50 0 780 780
780 780 3 -47 3 -47 -733 -733z m105 -95 l-638 -638 -50 0 -50 0 680 680 680
680 8 -41 9 -42 -639 -639z m100 -100 l-538 -538 -50 0 -50 0 585 585 585 585
3 -47 3 -47 -538 -538z m105 -95 l-433 -433 -50 0 -50 0 480 480 480 480 3
-47 3 -47 -433 -433z m110 -90 l-333 -333 -50 0 -50 0 380 380 380 380 3 -47
3 -47 -333 -333z m110 -89 l-223 -222 -54 -5 -53 -4 273 274 274 273 3 -47 3
-47 -223 -222z m115 -85 c-105 -105 -109 -107 -163 -114 l-55 -7 160 161 160
161 3 -47 3 -47 -108 -107z m117 -19 c0 -31 -13 -42 -65 -54 -30 -7 -30 -7 15
38 24 25 45 46 47 46 2 0 3 -13 3 -30z m3 -122 c44 -33 91 -291 90 -493 -1
-231 -38 -348 -189 -596 -206 -341 -353 -410 -570 -269 -76 50 -103 51 -202 1
-98 -49 -201 -81 -263 -81 -54 0 -173 35 -272 80 -37 16 -77 30 -90 30 -13 0
-45 -16 -71 -36 -121 -92 -228 -112 -324 -59 -106 58 -268 260 -383 479 -88
168 -122 361 -100 579 14 143 45 296 65 315 12 12 35 11 157 -6 246 -36 476
-45 943 -39 423 5 538 11 822 43 110 12 280 41 365 63 3 0 13 -5 22 -11z
m-1328 -1488 c3 -5 1 -10 -4 -10 -6 0 -11 5 -11 10 0 6 2 10 4 10 3 0 8 -4 11
-10z m800 0 c3 -5 1 -10 -4 -10 -6 0 -11 5 -11 10 0 6 2 10 4 10 3 0 8 -4 11
-10z"/>
</g>
</svg>
